<svg width="122" height="38" viewBox="0 0 122 38" fill="none" xmlns="http://www.w3.org/2000/svg">
<mask id="mask0_2_2472" style="mask-type:luminance" maskUnits="userSpaceOnUse" x="39" y="8" width="68" height="21">
<path d="M106.406 8.84155H39.4199V28.8947H106.406V8.84155Z" fill="white"/>
</mask>
<g mask="url(#mask0_2_2472)">
<path d="M95.5002 12.4831C96.4728 12.4831 97.2611 11.6679 97.2611 10.6623C97.2611 9.65675 96.4728 8.84155 95.5002 8.84155C94.5277 8.84155 93.7394 9.65675 93.7394 10.6623C93.7394 11.6679 94.5277 12.4831 95.5002 12.4831Z" fill="black"/>
<path d="M46.6464 9.46631L39.4199 28.488H42.5996L44.5486 23.2706H52.0779L54.0046 28.488H57.2105L49.9839 9.46631H46.6464ZM48.2494 12.999H48.3547L51.2013 20.6346H45.4015L48.2481 12.999H48.2494Z" fill="black"/>
<path d="M67.1046 15.39C66.1149 14.7205 64.9107 14.3843 63.4907 14.3843C62.0706 14.3843 60.9718 14.6837 59.9821 15.2811C58.9925 15.8785 58.2304 16.7304 57.6961 17.8354C57.1618 18.9405 56.8947 20.2087 56.8947 21.6403C56.8947 23.0719 57.1618 24.3851 57.6961 25.4724C58.2304 26.5597 58.9963 27.402 59.9953 27.9995C60.9941 28.5969 62.1589 28.8963 63.4907 28.8963C64.5764 28.8963 65.5359 28.7099 66.3676 28.3396C67.1994 27.9682 67.8785 27.4484 68.4048 26.7774C68.93 26.1079 69.2893 25.3376 69.4827 24.4681H66.6967C66.5216 25.0111 66.1623 25.4833 65.6188 25.8806C65.0752 26.2793 64.3659 26.478 63.4907 26.478C62.247 26.478 61.2916 26.0304 60.6256 25.1335C60.111 24.4409 59.8175 23.5387 59.7426 22.4296H69.613C69.8052 20.8538 69.6828 19.4535 69.2458 18.2314C68.8076 17.008 68.0942 16.0622 67.1046 15.3914V15.39ZM60.1795 18.8955C60.477 18.1892 60.9021 17.6503 61.4534 17.2789C62.0048 16.9073 62.6497 16.7222 63.3854 16.7222C64.2264 16.7222 64.9266 16.9263 65.4872 17.3332C66.0478 17.7415 66.4373 18.2844 66.6571 18.9635C66.7914 19.38 66.8532 19.8276 66.8466 20.3081H59.8123C59.8768 19.7936 59.9992 19.3228 60.1795 18.8955Z" fill="black"/>
<path d="M89.6659 15.024C88.9302 14.5981 88.0536 14.3858 87.0377 14.3858C85.8979 14.3858 84.9622 14.6483 84.2252 15.1736C83.6896 15.556 83.2526 16.0758 82.9118 16.7278V9.46631H80.0994V28.488H82.9118V21.722C82.9118 20.1284 83.2224 18.9282 83.8449 18.1212C84.4661 17.3156 85.3202 16.9114 86.4073 16.9114C87.318 16.9114 88.0011 17.1972 88.4564 17.7674C88.9117 18.3376 89.1394 19.2125 89.1394 20.3898V28.4867H91.9519V19.791C91.9519 18.6491 91.7545 17.6762 91.3609 16.8707C90.9662 16.065 90.4016 15.4486 89.6659 15.0226V15.024Z" fill="black"/>
<path d="M96.9186 14.7927H94.1063V28.488H96.9186V14.7927Z" fill="black"/>
<path d="M102.149 14.7927C101.202 14.7927 100.476 15.0553 99.968 15.5806C99.46 16.1058 99.2061 16.857 99.2061 17.8355V28.4867H102.018V17.2925H106.408V14.7927H102.15H102.149Z" fill="black"/>
<path d="M74.0955 10.5535H71.2831V25.4437C71.2831 26.4221 71.5371 27.1733 72.0452 27.6985C72.5531 28.2239 73.2795 28.4865 74.2258 28.4865H78.4833V25.9867H74.0943V17.2909H78.4833V14.7911H74.0943V10.5535H74.0955Z" fill="black"/>
</g>
<mask id="mask1_2_2472" style="mask-type:luminance" maskUnits="userSpaceOnUse" x="12" y="9" width="24" height="20">
<path d="M35.5542 9.45972H12.1499V28.4538H35.5542V9.45972Z" fill="white"/>
</mask>
<g mask="url(#mask1_2_2472)">
<path d="M26.322 9.45972H21.3816C20.8126 9.45972 20.294 9.79548 20.0472 10.3233L17.5215 15.7232C17.2054 16.3986 17.6832 17.182 18.4115 17.182H21.8199C22.2939 17.182 22.726 16.9021 22.9321 16.4621L23.8517 14.496L28.5637 24.5685L22.1976 19.8222C21.9446 19.634 21.6408 19.5322 21.3286 19.5322H16.6685C16.0993 19.5322 15.5809 19.868 15.3341 20.3958L12.2491 26.9951C11.933 27.6704 12.4108 28.4539 13.1391 28.4539H16.5475C17.0216 28.4539 17.4535 28.174 17.6597 27.734L20.1645 22.3798L27.0651 27.7886C27.6156 28.2198 28.2872 28.4539 28.9785 28.4539H34.5657C35.2941 28.4539 35.7718 27.6704 35.4558 26.9951L27.6564 10.3233C27.4096 9.79548 26.891 9.45972 26.322 9.45972Z" fill="black"/>
</g>
</svg>
