<svg width="236" height="38" viewBox="0 0 236 38" fill="none" xmlns="http://www.w3.org/2000/svg">
<g clip-path="url(#clip0_2_2522)">
<path d="M96.8943 31.4576C95.8899 31.5206 95.7647 31.5966 95.6055 32.1992C95.5842 32.4469 95.636 32.6955 95.7544 32.9136C95.8728 33.1318 96.0525 33.31 96.2711 33.4257C96.8189 33.4666 97.3692 33.4623 97.9163 33.4127C99.5734 33.3117 105.286 33.3117 107.194 33.4127C108.575 33.4887 108.588 33.4887 108.99 33.1596L109.379 32.8185V31.0988C109.379 30.1384 109.442 28.5328 109.53 27.5084C109.681 25.7007 109.668 25.6247 109.417 25.2956C109.335 25.1653 109.219 25.06 109.081 24.9909C108.944 24.9218 108.791 24.8916 108.638 24.9035C108.123 24.8655 108.111 24.8784 107.859 25.4347C107.634 25.9529 107.621 26.193 107.683 27.7522C107.775 29.9901 107.608 30.5964 106.742 31.0775C106.202 31.3807 106.051 31.3936 103.929 31.4316C101.481 31.4826 101.217 31.4316 100.891 30.7994C100.628 30.2932 100.628 23.7196 100.891 23.5046C101.299 23.3679 101.733 23.3288 102.159 23.3905C103.201 23.4286 103.276 23.4536 103.515 23.7827C103.791 24.1368 103.791 24.2249 103.728 26.1086C103.691 27.183 103.866 27.7013 104.306 27.8783C104.48 27.9213 104.663 27.9105 104.831 27.8474C104.999 27.7842 105.144 27.6716 105.247 27.5242C105.404 25.7759 105.455 24.0196 105.398 22.2651C105.398 17.5113 105.398 17.2712 105.16 17.0561C104.733 16.639 104.394 16.6139 104.042 16.9634C103.728 17.2795 103.715 17.3342 103.753 18.8342C103.778 20.1867 103.753 20.4398 103.54 20.7429C103.238 21.1981 102.887 21.3372 101.983 21.3372C100.753 21.3372 100.778 21.4132 100.778 18.278C100.778 14.5865 100.74 14.6366 103.829 14.6366C105.461 14.6366 105.699 14.6616 106.214 14.9147C107.118 15.3699 107.227 15.774 107.243 18.303C107.243 20.5789 107.319 20.907 107.921 21.1981C108.019 21.2564 108.129 21.2902 108.243 21.2968C108.356 21.3035 108.47 21.2826 108.574 21.2361C109.177 20.945 109.218 20.6669 109.151 16.8744C109.075 12.3487 109.276 12.6898 106.614 12.6388C105.787 12.5502 104.951 12.6016 104.141 12.7909C102.171 13.0733 100.172 13.0777 98.2017 12.8038C97.806 12.6862 97.3962 12.6238 96.9837 12.6184C96.4313 12.6184 96.2554 12.6815 96.0041 12.9216C95.8177 13.0855 95.6872 13.3043 95.6309 13.5469C95.5745 13.7896 95.5953 14.0439 95.6902 14.2741C95.9037 14.7923 96.3558 14.9564 97.0334 14.7543C97.7367 14.5689 98.151 14.8053 98.2891 15.4876C98.3398 15.7527 98.3895 19.2801 98.3895 23.3257C98.3858 32.0388 98.511 31.3566 96.8943 31.4576Z" fill="black"/>
<path d="M127.075 24.4028C128.745 24.3778 128.945 24.4028 129.46 24.6559C130.427 25.1621 130.515 25.4402 130.603 28.4234C130.741 32.9241 131.117 33.4803 133.93 33.4803C135.072 33.4803 135.085 33.4803 135.424 33.0761C135.542 32.9737 135.629 32.8401 135.676 32.6903C135.722 32.5406 135.726 32.3807 135.687 32.2288C135.587 31.6216 135.319 31.4575 134.42 31.4575C133.114 31.4575 132.913 30.994 132.787 27.513C132.812 26.4003 132.681 25.2895 132.398 24.2137C132.151 23.8107 131.794 23.4886 131.369 23.2867C131 23.1346 130.967 23.0846 131.092 22.8565C131.269 22.621 131.491 22.4233 131.745 22.2753C132.444 21.8586 132.984 21.2173 133.277 20.4546C133.654 19.6583 133.667 19.5693 133.654 17.9896C133.751 17.133 133.624 16.2656 133.285 15.4736C132.482 13.5018 130.912 12.6165 128.263 12.6165C127.692 12.5698 127.117 12.6327 126.568 12.8019C125.182 13.0561 123.761 13.0561 122.375 12.8019C122.038 12.6608 121.674 12.5934 121.309 12.6043C120.944 12.6152 120.586 12.704 120.257 12.865C120.056 13.0206 119.916 13.2437 119.863 13.494C119.81 13.7443 119.847 14.0055 119.968 14.2305C120.152 14.5846 120.207 14.6096 121.111 14.6606C122.316 14.7116 122.429 14.8247 122.567 16.1142C122.705 17.4037 122.692 28.6931 122.567 29.9836C122.442 31.274 122.24 31.4501 121.124 31.4501C120.282 31.4501 120.157 31.5011 119.927 31.9136C119.812 32.1048 119.772 32.332 119.813 32.5514C119.855 32.7708 119.976 32.967 120.152 33.1021C120.491 33.4432 120.592 33.4729 121.441 33.4729C121.846 33.4828 122.25 33.4274 122.638 33.3088C123.087 33.1743 123.562 33.1567 124.019 33.2578C127.07 33.5359 127.032 33.5359 127.447 33.1188C127.633 32.9675 127.758 32.7526 127.797 32.5149C127.836 32.2772 127.788 32.0332 127.66 31.8293C127.522 31.5382 127.409 31.5132 126.518 31.4501C125.024 31.3491 125.045 31.4121 124.974 27.8977C124.936 25.6728 124.961 25.0026 125.087 24.7458C125.255 24.4408 125.279 24.4408 127.075 24.4028ZM124.941 18.7006C124.91 17.7002 124.952 16.6988 125.066 15.7045C125.177 15.4657 125.341 15.2559 125.546 15.0915C125.751 14.927 125.99 14.8122 126.246 14.7561C126.734 14.6893 127.226 14.6556 127.719 14.6551C128.326 14.5884 128.939 14.6934 129.49 14.9582C130.833 15.5775 131.373 16.5128 131.385 18.2455C131.461 18.8662 131.367 19.4961 131.112 20.0667C130.858 20.6373 130.453 21.1267 129.942 21.4817C129.402 21.8526 129.389 21.8525 127.43 21.8525C124.74 21.8488 124.941 22.101 124.941 18.7006Z" fill="black"/>
<path d="M173.116 31.4613C172.225 31.4613 171.96 31.5874 171.785 32.1103C171.722 32.2443 171.701 32.3939 171.724 32.5401C171.746 32.6862 171.811 32.8225 171.91 32.9316C172.224 33.4498 172.538 33.5388 173.63 33.4248C175.105 33.3164 176.586 33.3164 178.062 33.4248L179.142 33.5008L179.48 33.0966C179.592 33.0006 179.677 32.8762 179.726 32.7362C179.774 32.5962 179.785 32.4458 179.756 32.3003C179.618 31.6301 179.367 31.466 178.413 31.466C177.61 31.466 177.534 31.4409 177.146 31.0358C176.357 30.083 175.651 29.0635 175.036 27.9887C174.747 27.4955 174.392 26.9522 174.27 26.7622C174.17 26.6364 174.09 26.4957 174.032 26.345C173.855 25.9965 173.658 25.6587 173.442 25.3336C171.684 22.5776 171.722 22.7036 172.299 21.7683C172.525 21.4141 173.153 20.3898 173.693 19.4924C174.438 18.1463 175.269 16.8497 176.179 15.6109C176.353 15.2817 176.622 15.0136 176.951 14.8421C177.28 14.6706 177.653 14.6038 178.02 14.6505C178.786 14.6505 178.811 14.6375 179.012 14.2204C179.116 14.0204 179.16 13.794 179.137 13.5692C179.115 13.3445 179.028 13.1312 178.887 12.9559C178.635 12.6147 177.493 12.5387 176.715 12.8039C175.777 13.0548 174.792 13.0593 173.852 12.8168C172.861 12.5137 172.309 12.5638 171.881 12.9939C171.153 13.7355 171.58 14.6505 172.66 14.6505C173.413 14.6505 173.702 14.8656 173.602 15.3588C172.779 17.0869 171.818 18.7445 170.727 20.3147C170.476 20.3657 170.3 20.0996 168.894 17.5966C167.312 14.7775 167.329 14.6505 168.969 14.6505C169.735 14.6505 170.012 14.3724 170.012 13.6308C170.012 12.7204 169.091 12.4043 167.702 12.8215C166.801 13.0625 165.853 13.0625 164.952 12.8215C164.284 12.612 163.572 12.5902 162.892 12.7584C162.756 12.8382 162.638 12.947 162.548 13.0773C162.457 13.2075 162.396 13.3561 162.368 13.5126C162.341 13.6691 162.348 13.8298 162.388 13.9835C162.429 14.1371 162.502 14.2799 162.603 14.4021C162.787 14.5875 163.017 14.6551 163.545 14.6551C164.211 14.6551 164.273 14.6802 164.788 15.2243C165.566 16.0207 166.206 17.02 168.442 20.8885C168.692 21.3372 168.969 21.7706 169.27 22.1864C169.471 22.3004 169.396 22.8436 169.119 23.2738C168.659 24.0071 167.831 25.3475 167.311 26.2199C166.432 27.7031 164.65 30.3665 164.173 30.9227C163.721 31.4539 163.696 31.466 162.905 31.466C161.938 31.466 161.687 31.58 161.486 32.0852C161.422 32.2026 161.391 32.3358 161.398 32.4698C161.404 32.6038 161.448 32.7333 161.524 32.8435C161.825 33.4248 162.114 33.5258 163.282 33.4248C164.82 33.311 166.364 33.311 167.902 33.4248C168.831 33.5175 168.882 33.5008 169.183 33.1977C169.381 33.0068 169.499 32.7469 169.513 32.4711C169.527 32.1954 169.436 31.9247 169.258 31.7144C169.058 31.5123 168.844 31.4613 168.203 31.4613C167.638 31.4613 167.337 31.3983 167.199 31.2592C167.121 31.1939 167.054 31.1173 166.998 31.0321C167.216 30.4887 167.462 29.9571 167.735 29.4395C167.81 29.3384 168.463 28.264 169.208 27.0626C169.648 26.3111 170.13 25.585 170.651 24.8877C170.777 24.8877 170.99 25.2289 172.435 27.6688C174.205 30.703 174.33 30.9811 174 31.3102C173.722 31.4334 173.418 31.4853 173.116 31.4613Z" fill="black"/>
<path d="M151.269 14.6431C152.073 14.6431 152.211 14.58 152.425 14.1796C152.538 13.9923 152.578 13.7691 152.536 13.5538C152.494 13.3385 152.374 13.1467 152.199 13.0161C151.872 12.675 151.76 12.624 151.144 12.624C150.731 12.6293 150.322 12.6917 149.926 12.8094C149.004 13.0499 148.036 13.0499 147.113 12.8094C146.712 12.6985 146.299 12.6362 145.883 12.624C145.701 12.5987 145.514 12.6194 145.341 12.6841C145.168 12.7488 145.014 12.8555 144.892 12.9948C144.702 13.1415 144.577 13.3578 144.544 13.5967C144.511 13.8357 144.573 14.0781 144.716 14.2713C144.9 14.6255 144.954 14.6505 145.658 14.6505C146.587 14.6505 146.989 14.8276 147.165 15.3328C147.341 15.838 147.479 26.168 147.328 28.924C147.19 31.389 147.152 31.465 145.855 31.465C145.013 31.465 144.888 31.516 144.658 31.9285C144.542 32.1233 144.502 32.3547 144.546 32.5776C144.59 32.8004 144.715 32.9987 144.896 33.1337C145.273 33.5045 145.286 33.5045 146.302 33.4248C147.828 33.3169 149.359 33.3169 150.885 33.4248C151.806 33.5175 151.806 33.5175 152.174 33.1087C152.613 32.6285 152.651 32.2614 152.299 31.8108C152.074 31.5197 151.931 31.4817 151.144 31.44C150.328 31.402 150.223 31.364 149.988 31.0479C149.725 30.6937 149.725 30.6177 149.725 23.2098C149.737 14.2129 149.662 14.6431 151.269 14.6431Z" fill="black"/>
<path d="M25.6654 33.4173C27.1201 33.3161 28.5801 33.3161 30.0348 33.4173C30.926 33.4933 31.0143 33.4803 31.2648 33.2022C31.4494 33.0542 31.5706 32.8406 31.6033 32.6053C31.636 32.37 31.5778 32.131 31.4406 31.9377C31.215 31.5456 31.1395 31.5205 30.4279 31.4575C29.4861 31.3815 29.3609 31.2424 29.4483 30.3701C29.626 28.9255 30.0021 27.5128 30.566 26.1725C30.8173 25.9074 30.9048 25.8944 32.9597 25.8944C33.7314 25.8657 34.5042 25.9038 35.2695 26.0084C35.7922 27.2261 36.1227 28.5185 36.2491 29.8389C36.3623 31.1914 36.2113 31.4315 35.1443 31.4825C34.4161 31.5205 34.3535 31.5456 34.1316 31.9377C34.0368 32.0448 33.977 32.1787 33.9605 32.3212C33.9441 32.4637 33.9717 32.6079 34.0396 32.734C34.3158 33.3913 34.6545 33.5183 35.7593 33.4163C37.2388 33.3025 38.7247 33.3025 40.2042 33.4163C41.146 33.509 41.1579 33.509 41.4222 33.1632C41.593 32.9614 41.6889 32.7061 41.6934 32.4409C41.6979 32.1758 41.6108 31.9173 41.447 31.7096C41.2463 31.5076 41.0327 31.4566 40.392 31.4566C39.5256 31.4566 39.3369 31.3555 39.011 30.7233C38.86 30.4322 37.7681 26.2856 37.2406 23.9977C37.0565 23.1633 36.738 21.9118 36.4875 20.9635C36.2371 20.0151 35.9223 18.7636 35.7345 17.9293C35.5209 16.9939 35.2318 15.8555 34.8138 14.3259C34.718 13.685 34.4438 13.0846 34.023 12.5942C33.6713 12.2151 33.4835 12.114 33.1438 12.1307C32.9345 12.1057 32.7224 12.1384 32.5301 12.2253C32.3378 12.3121 32.1726 12.4499 32.0519 12.6239C31.6188 13.4623 31.314 14.3618 31.1478 15.2919C31.1434 15.4595 31.1005 15.6239 31.0226 15.7721C30.96 15.8982 30.7087 16.7585 30.4574 17.6938C29.5781 21.0441 29.2605 22.1946 28.8251 23.8123C28.5737 24.7096 28.2101 26.1132 27.9965 26.9095C27.699 28.1774 27.2959 29.4179 26.7914 30.6176C26.4397 31.3129 26.1884 31.4649 25.3349 31.4649C24.4815 31.4649 24.3554 31.5159 24.1298 31.9284C24.017 32.1271 23.9731 32.3579 24.0049 32.5845C24.0367 32.8111 24.1425 33.0206 24.3056 33.1799C24.6104 33.4803 24.6739 33.4933 25.6654 33.4173ZM31.9681 19.953C32.1817 19.2448 32.6586 17.285 32.6586 17.0792C32.6838 16.911 32.7258 16.7458 32.7838 16.586C32.9219 16.2449 32.9219 16.2319 33.1732 16.485C33.4091 16.8694 33.5589 17.3009 33.6124 17.7495C33.7127 18.2927 33.8757 19.064 33.9889 19.4431C34.1896 20.2274 34.4787 21.5169 34.6923 22.6878C34.9059 23.8252 34.8552 23.8632 32.9845 23.8632C31.3651 23.8632 31.1515 23.8002 31.1515 23.269C31.3512 22.1468 31.624 21.0391 31.9681 19.953Z" fill="black"/>
<path d="M84.0017 20.9775C84.0708 21.0852 84.1656 21.1738 84.2775 21.2351C84.3893 21.2964 84.5147 21.3286 84.642 21.3286C84.7694 21.3286 84.8947 21.2964 85.0065 21.2351C85.1184 21.1738 85.2132 21.0852 85.2823 20.9775L85.6506 20.6067V13.1348L85.3237 12.8817C84.9969 12.6166 84.8717 12.6166 79.1343 12.6286C75.9203 12.6286 73.2081 12.6666 73.1207 12.7046C72.6935 12.8817 72.6309 13.3749 72.6603 16.9273C72.6852 20.0875 72.711 20.4676 72.9237 20.8208C72.9665 20.9278 73.0321 21.0239 73.116 21.1025C73.1998 21.181 73.2997 21.2401 73.4087 21.2755C73.5177 21.3108 73.6331 21.3217 73.7467 21.3072C73.8603 21.2927 73.9694 21.2532 74.0662 21.1916C74.6563 20.9135 74.7437 20.4333 74.6563 17.9173L74.5808 15.6795L75.008 15.1993C75.1417 15.0156 75.3214 14.8708 75.5287 14.7798C75.736 14.6888 75.9636 14.6547 76.1882 14.6811C77.0923 14.618 77.444 14.7951 77.7957 15.4653C78.0341 15.9289 78.047 16.207 78.0967 21.2176C78.1473 27.0968 78.0212 30.4212 77.7285 31.0154C77.5526 31.3862 77.5149 31.3946 76.586 31.4326C75.7196 31.4706 75.5944 31.4956 75.356 31.8034C75.0043 32.2586 75.0421 32.6247 75.4812 33.1012L75.8577 33.5054L76.9496 33.4127C78.467 33.3116 79.9894 33.3116 81.5068 33.4127C82.4357 33.4887 82.4486 33.4887 82.8122 33.1096C83.0119 32.9364 83.1367 32.6917 83.1601 32.4274C83.1835 32.163 83.1036 31.9 82.9375 31.694C82.7745 31.5169 82.5232 31.4539 81.7701 31.4289C80.8494 31.3909 80.8163 31.3779 80.6404 31.0117C80.4847 30.4997 80.3919 29.9705 80.3643 29.4357C80.2391 27.8598 80.2391 16.7808 80.3643 15.9938C80.382 15.6615 80.517 15.3465 80.7448 15.1056C80.9727 14.8646 81.2784 14.7134 81.6071 14.6792C82.4863 14.5652 82.9761 14.7172 83.3269 15.2484C83.6408 15.7036 83.6408 15.7546 83.6408 18.1565V20.6094L84.0017 20.9775Z" fill="black"/>
<path d="M51.1782 33.4804C51.3918 33.9439 51.4415 33.9865 51.9147 33.9865C52.3879 33.9865 52.4542 33.9356 52.6512 33.5314C52.7782 33.2352 52.8506 32.9183 52.8648 32.596C52.8648 32.1788 52.9025 32.0898 53.1032 32.0898C53.1903 32.1023 53.274 32.1322 53.3494 32.1777C53.4248 32.2232 53.4905 32.2835 53.5424 32.355C54.013 32.8898 54.6085 33.2982 55.275 33.5434C55.4496 33.5723 55.6066 33.6671 55.7142 33.8086C56.6858 34.0613 57.7052 34.0613 58.6768 33.8086C58.8136 33.6661 58.9957 33.5765 59.1914 33.5555C60.0296 33.1848 60.779 32.6372 61.389 31.9498C62.0599 31.041 62.5208 29.9927 62.7381 28.8816C62.9553 27.7705 62.9234 26.6245 62.6447 25.5274C62.0169 23.2645 61.1505 22.5609 57.8234 21.5578C57.4846 21.4568 56.9948 21.3307 56.7563 21.2797C56.5605 21.2438 56.3703 21.1815 56.1911 21.0943C55.9911 20.9882 55.7806 20.9034 55.5632 20.8412C54.973 20.7304 54.4341 20.4306 54.0268 19.9864C53.6195 19.5423 53.3657 18.9775 53.303 18.3762C53.0517 16.1004 54.3452 14.2973 56.3163 14.1666C56.8495 14.0899 57.3925 14.2065 57.8482 14.4957C58.5662 14.9142 59.142 15.5411 59.5004 16.2945C59.8588 17.0479 59.9831 17.8926 59.857 18.7183C59.7567 19.9234 59.9491 20.526 60.472 20.7161C60.9241 20.8931 61.2085 20.7791 61.5519 20.2989C61.8281 19.9068 61.841 19.8187 61.841 16.7335C61.8281 13.9904 61.8033 13.5223 61.6155 13.1682C61.547 13.0038 61.4313 12.8639 61.2832 12.7663C61.1351 12.6688 60.9614 12.6181 60.7845 12.6208C60.6075 12.6234 60.4354 12.6794 60.2903 12.7814C60.1452 12.8834 60.0338 13.0268 59.9703 13.1932C59.9171 13.3589 59.8271 13.5101 59.707 13.6354C59.4588 13.4869 59.2235 13.3176 59.0036 13.1292C58.7633 12.9136 58.4872 12.7423 58.1879 12.6231C57.9605 12.5758 57.7426 12.4902 57.5435 12.37C56.5391 11.8267 54.4547 12.2309 53.2993 13.1913C52.6075 13.7265 52.0433 14.4106 51.6479 15.1937C51.2525 15.9768 51.0361 16.8389 51.0143 17.7171C50.8711 18.7886 51.0686 19.8783 51.5783 20.8299C52.088 21.7815 52.8838 22.5461 53.8517 23.0142C54.5484 23.386 55.286 23.6744 56.0493 23.8735C57.0185 24.07 57.9651 24.3667 58.8738 24.7589C59.6046 25.1272 60.1859 25.7391 60.519 26.4906C61.3476 29.3727 59.6775 31.9647 56.9782 31.9647C56.2054 31.9555 55.4512 31.7246 54.804 31.2992C54.1569 30.8738 53.6435 30.2714 53.3242 29.5627C53.0392 28.8365 52.9441 28.0487 53.048 27.2748C53.048 25.164 52.9228 24.8849 52.0436 24.8849C51.5833 24.8849 51.4535 24.9359 51.215 25.2771C50.9637 25.6479 50.9517 25.7406 51.0521 27.0088C51.1688 28.3351 51.1645 29.6694 51.0392 30.995C50.9646 32.7721 50.9766 33.0252 51.1782 33.4804Z" fill="black"/>
<path d="M185.37 5.7426L186.085 4.41509L188.571 5.95768L188.47 2.99951H190.103L190.002 5.95768L192.488 4.41509L193.203 5.7426L190.667 7.17116L193.203 8.57469L192.488 9.92723L190.002 8.38465L190.103 11.3428H188.47L188.571 8.38465L186.085 9.92723L185.37 8.57469L187.906 7.17116L185.37 5.7426Z" fill="black"/>
<path d="M194.774 5.7426L195.489 4.41509L197.975 5.95768L197.875 2.99951H199.507L199.407 5.95768L201.892 4.41509L202.608 5.7426L200.071 7.17116L202.608 8.57469L201.892 9.92723L199.407 8.38465L199.507 11.3428H197.875L197.975 8.38465L195.489 9.92723L194.774 8.57469L197.31 7.17116L194.774 5.7426Z" fill="#8B897E"/>
<path d="M204.165 5.7426L204.881 4.41509L207.366 5.95768L207.266 2.99951H208.898L208.798 5.95768L211.284 4.41509L211.999 5.7426L209.463 7.17116L211.999 8.57469L211.284 9.92723L208.798 8.38465L208.898 11.3428H207.266L207.366 8.38465L204.881 9.92723L204.165 8.57469L206.702 7.17116L204.165 5.7426Z" fill="#3E3D38"/>
</g>
<defs>
<clipPath id="clip0_2_2522">
<rect width="188" height="31" fill="white" transform="translate(24 2.99951)"/>
</clipPath>
</defs>
</svg>
