<svg width="43" height="62" viewBox="0 0 43 62" fill="none" xmlns="http://www.w3.org/2000/svg">
<path d="M1.59677 29.0289L22.2753 2.48597C23.8926 0.410097 26.9238 1.70214 26.9238 4.46735V25.0118C26.9238 26.6683 28.1126 28.0111 29.579 28.0111H39.6368C41.9216 28.0111 43.1395 31.0542 41.6301 32.9917L20.9515 59.5346C19.3343 61.6105 16.303 60.3184 16.303 57.5532V37.0087C16.303 35.3523 15.1142 34.0095 13.6478 34.0095H3.59007C1.30528 34.0095 0.08738 30.9664 1.59677 29.0289Z" fill="#2684FF" stroke="white" stroke-linecap="round" stroke-linejoin="round"/>
<path d="M4.0785 29.2745L22.1928 6.02307C23.6095 4.20461 26.2648 5.33644 26.2648 7.75874V25.7556C26.2648 27.2066 27.3062 28.3829 28.5908 28.3829H37.4013C39.4028 28.3829 40.4696 31.0487 39.1474 32.7459L21.0331 55.9973C19.6164 57.8158 16.9611 56.6839 16.9611 54.2616V36.2648C16.9611 34.8138 15.9197 33.6375 14.6351 33.6375H5.82462C3.82316 33.6375 2.75628 30.9717 4.0785 29.2745Z" fill="#2684FF" stroke="white" stroke-linecap="round" stroke-linejoin="round"/>
</svg>
