<svg width="172" height="38" viewBox="0 0 172 38" fill="none" xmlns="http://www.w3.org/2000/svg">
<g clip-path="url(#clip0_2_2448)">
<path d="M36.138 32.284H14.6884C13.2867 32.284 12.1466 31.1475 12.1466 29.7422V8.29256C12.1466 6.89079 13.2831 5.75073 14.6884 5.75073H36.138C37.5398 5.75073 38.6799 6.88721 38.6799 8.29256V29.7422C38.6763 31.1475 37.5398 32.284 36.138 32.284Z" fill="#0472FF"/>
<path opacity="0.3" fill-rule="evenodd" clip-rule="evenodd" d="M30.8322 23.6367C31.9293 22.3497 32.5351 20.7256 32.5316 19.0191C32.5316 17.3162 31.9293 15.6886 30.8358 14.4052L31.8755 13.3655C33.245 14.9286 33.9979 16.9254 34.0014 19.0191C34.0014 21.1128 33.245 23.1097 31.8755 24.6764L30.8322 23.6367ZM27.0966 19.9011C27.2364 19.6286 27.3153 19.331 27.3117 19.0191C27.3117 18.7108 27.24 18.4097 27.0966 18.1444L28.1613 17.0796C28.5629 17.6425 28.7744 18.3165 28.778 19.0191C28.778 19.7254 28.5593 20.3994 28.1577 20.9623L27.0966 19.9011ZM28.9787 21.7832C29.5882 20.9945 29.9216 20.0265 29.9216 19.0191C29.9216 18.0117 29.5882 17.0473 28.9823 16.2586L30.0256 15.2153C30.9039 16.2837 31.3915 17.6209 31.3915 19.0191C31.3915 20.4173 30.9075 21.7546 30.0256 22.8265L28.9787 21.7832Z" fill="white"/>
<path d="M30.531 24.9488L30.0255 24.4433L29.2152 23.6331L28.172 22.5898C27.4048 23.1777 26.4475 23.5327 25.4079 23.5327C22.9198 23.5327 20.8978 21.5107 20.8978 19.0226C20.8978 16.5274 22.9162 14.5054 25.4114 14.509C26.4511 14.509 27.4048 14.8604 28.1684 15.4519L29.2152 14.4051L30.0255 13.5948L30.531 13.0893L31.0651 12.5552C29.5558 11.2358 27.5768 10.4328 25.4114 10.4292C23.2425 10.4292 21.2671 11.2323 19.7542 12.5552L20.7938 13.5948C22.0379 12.5336 23.6476 11.8919 25.4114 11.8955C26.6376 11.8919 27.7884 12.2038 28.7958 12.7452L27.9461 13.5948C27.1753 13.2363 26.3185 13.0356 25.4114 13.0356C22.1096 13.0356 19.4315 15.71 19.4315 19.0155C19.4315 22.3173 22.106 24.9954 25.4114 24.9954C26.3185 24.9954 27.1753 24.7946 27.9461 24.4361L28.7958 25.2858C27.792 25.8307 26.6376 26.139 25.4079 26.139C23.6476 26.139 22.0379 25.5009 20.7974 24.4397L19.7578 25.4794C21.2635 26.8023 23.2425 27.6018 25.4114 27.6053C27.5768 27.6089 29.5558 26.8023 31.0651 25.4794L30.531 24.9488Z" fill="white"/>
<path d="M18.2878 19.0227C18.2878 17.2588 18.9296 15.6491 19.9872 14.4052L18.9475 13.3655C17.6282 14.8748 16.8215 16.8537 16.8215 19.0191C16.8215 21.1881 17.621 23.1671 18.9475 24.6728L19.9872 23.6331C18.9296 22.3927 18.2914 20.7794 18.2878 19.0227Z" fill="white"/>
<path opacity="0.3" d="M25.4115 19.7864C25.8309 19.7828 26.1715 19.4422 26.1751 19.0228C26.1751 18.5998 25.831 18.2556 25.4079 18.2556C24.9885 18.2592 24.6479 18.5998 24.6443 19.0192C24.6479 19.4423 24.9885 19.7864 25.4115 19.7864Z" fill="white"/>
<path d="M47.3992 25.186C46.6719 24.5813 46.3082 23.7203 46.3082 22.603V20.266C46.3082 19.1453 46.6719 18.2843 47.3992 17.683C48.1265 17.0782 49.1645 16.7776 50.5167 16.7776C52.2043 16.7776 53.4153 17.273 54.1426 18.2672L52.409 19.6271C52.0984 19.2752 51.8124 19.0257 51.5511 18.8822C51.2899 18.7387 50.9474 18.667 50.5167 18.667C49.9836 18.667 49.5705 18.8071 49.2774 19.0804C48.9844 19.3572 48.8396 19.7535 48.8396 20.2694V22.6064C48.8396 23.1223 48.9844 23.5187 49.2774 23.7954C49.5705 24.0722 49.9836 24.2088 50.5167 24.2088C50.9439 24.2088 51.2899 24.1371 51.5511 23.9936C51.8124 23.8501 52.0984 23.6007 52.409 23.2488L54.1426 24.6086C53.7789 25.1108 53.3093 25.4867 52.7409 25.7293C52.169 25.9753 51.4276 26.0983 50.5202 26.0983C49.168 26.0914 48.1265 25.7908 47.3992 25.186Z" fill="#333333"/>
<path d="M56.5012 25.1857C55.7739 24.581 55.4103 23.72 55.4103 22.6027V20.2657C55.4103 19.145 55.7739 18.284 56.5012 17.6827C57.2285 17.0779 58.2665 16.7773 59.6187 16.7773C60.9709 16.7773 62.0089 17.0779 62.7362 17.6827C63.4635 18.2874 63.8272 19.1484 63.8272 20.2657V22.6027C63.8272 23.7234 63.4635 24.5844 62.7362 25.1857C62.0089 25.7905 60.9709 26.0911 59.6187 26.0911C58.2665 26.0911 57.2285 25.7905 56.5012 25.1857ZM60.858 23.7917C61.151 23.515 61.2957 23.1186 61.2957 22.6027V20.2657C61.2957 19.7498 61.151 19.3534 60.858 19.0767C60.5649 18.7999 60.1518 18.6633 59.6187 18.6633C59.0856 18.6633 58.6725 18.8034 58.3795 19.0767C58.0865 19.3534 57.9417 19.7498 57.9417 20.2657V22.6027C57.9417 23.1186 58.0865 23.515 58.3795 23.7917C58.6725 24.0685 59.0856 24.2051 59.6187 24.2051C60.1518 24.2051 60.5649 24.0685 60.858 23.7917Z" fill="#333333"/>
<path d="M66.3441 15.397C66.0581 15.1202 65.9169 14.7889 65.9169 14.3959C65.9169 14.0201 66.0581 13.6887 66.3441 13.4051C66.63 13.1215 66.9725 12.9814 67.3785 12.9814C67.7669 12.9814 68.1094 13.1215 68.4024 13.4051C68.6954 13.6887 68.8402 14.0167 68.8402 14.3959C68.8402 14.7854 68.6954 15.1202 68.4024 15.397C68.1094 15.6737 67.7704 15.8104 67.3785 15.8104C66.9725 15.8138 66.63 15.6737 66.3441 15.397ZM66.4994 24.9705C66.2381 24.5503 66.111 23.9626 66.111 23.2075V17.0028H68.646V23.1324C68.646 23.4706 68.7131 23.7474 68.8508 23.9626C68.9885 24.1779 69.2321 24.4102 69.5816 24.6596L67.8869 26.0946C67.2196 25.7666 66.7571 25.3908 66.4994 24.9705Z" fill="#333333"/>
<path d="M78.9238 17.5666C79.464 18.0961 79.7323 18.8478 79.7323 19.8284V25.8622H77.1974V20.0539C77.1974 19.6268 77.0773 19.2886 76.8373 19.0357C76.5972 18.7829 76.2759 18.6599 75.8734 18.6599C75.0155 18.6599 74.3976 19.1519 74.0234 20.1325V25.8657H71.4885V19.7361C71.4885 19.3979 71.4214 19.1211 71.2837 18.9059C71.146 18.6906 70.9024 18.4583 70.5529 18.2089L72.2475 16.7739C72.6641 16.9755 72.9925 17.1873 73.2326 17.4162C73.4726 17.6417 73.6562 17.9082 73.7869 18.2089C74.0587 17.7818 74.4259 17.4367 74.8884 17.1702C75.3509 16.9071 75.9228 16.7739 76.6148 16.7739C77.614 16.7739 78.3837 17.037 78.9238 17.5666Z" fill="#333333"/>
<path d="M83.3969 25.893C82.9414 25.7598 82.5778 25.5821 82.3059 25.3566C82.0341 25.1311 81.7481 24.8236 81.448 24.4307L83.0262 23.1289C83.3651 23.5321 83.6793 23.8123 83.9724 23.9694C84.2654 24.1266 84.6644 24.2052 85.1728 24.2052C85.7306 24.2052 86.1366 24.1403 86.3908 24.007C86.645 23.8738 86.7721 23.6654 86.7721 23.3749C86.7721 23.0982 86.6132 22.8829 86.2955 22.7326C85.9777 22.5823 85.3563 22.4319 84.4349 22.2782C82.6166 21.9399 81.7057 20.9833 81.7057 19.4116C81.7057 18.6087 82.0376 17.9663 82.7014 17.488C83.3651 17.0097 84.2477 16.7705 85.3528 16.7705C86.2743 16.7705 87.0051 16.9003 87.5453 17.1566C88.0855 17.4128 88.5233 17.7887 88.8622 18.2807L87.3017 19.5619C86.9628 19.2339 86.6591 19.0016 86.3873 18.8649C86.1154 18.7283 85.7694 18.6565 85.3528 18.6565C84.5231 18.6565 84.1065 18.9401 84.1065 19.5038C84.1065 19.7669 84.2442 19.9685 84.5267 20.1086C84.8056 20.2487 85.1586 20.3546 85.5894 20.4298C86.3943 20.6074 87.0334 20.7851 87.51 20.9662C87.9831 21.1473 88.3785 21.4343 88.6998 21.8238C89.0175 22.2133 89.1764 22.7497 89.1764 23.4262C89.1764 24.3316 88.8445 25.0013 88.1808 25.4352C87.517 25.8691 86.5179 26.0844 85.1798 26.0844C84.4419 26.0912 83.8523 26.0263 83.3969 25.893Z" fill="#333333"/>
<path d="M95.8704 24.0651C96.1705 23.9455 96.4953 23.7337 96.8448 23.433L98.3453 24.7518C97.5933 25.6436 96.3753 26.0912 94.7018 26.0912C93.2084 26.0912 92.128 25.8178 91.4678 25.2712C90.8076 24.7245 90.4722 23.8362 90.4722 22.6027V19.907C90.4722 18.9401 90.8323 18.1747 91.5525 17.6144C92.2728 17.0541 93.2578 16.7739 94.5041 16.7739C95.7892 16.7739 96.7954 17.0711 97.5262 17.6691C98.2535 18.267 98.6172 19.1382 98.6172 20.2828C98.6172 20.8363 98.5678 21.2634 98.4724 21.5641C98.3736 21.8647 98.1829 22.0902 97.897 22.2337C97.611 22.3772 97.1944 22.4524 96.6507 22.4524H92.9859V22.6232C92.9859 23.7063 93.5579 24.2462 94.7018 24.2462C95.1819 24.2427 95.5703 24.1847 95.8704 24.0651ZM93.3849 19.0289C93.1201 19.2988 92.9859 19.6541 92.9859 20.0949V20.7748H95.2067C95.5456 20.7748 95.7786 20.7236 95.9093 20.6245C96.0399 20.5254 96.1034 20.3477 96.1034 20.0983C96.1034 19.62 95.9657 19.2544 95.6939 19.005C95.422 18.7521 95.0231 18.6291 94.5041 18.6291C94.0239 18.6223 93.6497 18.759 93.3849 19.0289Z" fill="#333333"/>
<path d="M105.477 24.0651C105.777 23.9455 106.102 23.7337 106.452 23.433L107.952 24.7518C107.2 25.6436 105.982 26.0912 104.309 26.0912C102.815 26.0912 101.735 25.8178 101.075 25.2712C100.411 24.7245 100.079 23.8362 100.079 22.6027V19.907C100.079 18.9401 100.439 18.1747 101.159 17.6144C101.88 17.0541 102.865 16.7739 104.111 16.7739C105.396 16.7739 106.402 17.0711 107.133 17.6691C107.86 18.267 108.224 19.1382 108.224 20.2828C108.224 20.8363 108.175 21.2634 108.079 21.5641C107.98 21.8647 107.79 22.0902 107.504 22.2337C107.218 22.3772 106.801 22.4524 106.257 22.4524H102.593V22.6232C102.593 23.7063 103.165 24.2462 104.309 24.2462C104.789 24.2427 105.177 24.1847 105.477 24.0651ZM102.992 19.0289C102.727 19.2988 102.593 19.6541 102.593 20.0949V20.7748H104.813C105.152 20.7748 105.385 20.7236 105.516 20.6245C105.647 20.5254 105.71 20.3477 105.71 20.0983C105.71 19.62 105.572 19.2544 105.301 19.005C105.029 18.7521 104.63 18.6291 104.111 18.6291C103.631 18.6223 103.26 18.759 102.992 19.0289Z" fill="#333333"/>
<path d="M118.808 25.8657H116.217L115.359 22.8864C115.257 22.5344 115.098 22.2748 114.889 22.1039C114.681 21.9331 114.332 21.8238 113.837 21.7725L112.57 23.0162V25.8657H110.035V14.683C110.035 14.3447 109.968 14.068 109.83 13.8527C109.693 13.6375 109.449 13.4051 109.099 13.1557L110.794 11.7207C111.458 12.0487 111.917 12.4211 112.178 12.8414C112.439 13.2616 112.566 13.8493 112.566 14.6044V20.0369L115.606 16.9994H118.685L115.585 20.0369C116.21 20.1872 116.694 20.4844 117.036 20.9252C117.379 21.3659 117.682 22.0185 117.943 22.8864L118.808 25.8657Z" fill="#333333"/>
<path d="M125.276 24.0651C125.577 23.9455 125.901 23.7337 126.251 23.433L127.751 24.7518C126.999 25.6436 125.781 26.0912 124.108 26.0912C122.614 26.0912 121.534 25.8178 120.874 25.2712C120.21 24.7245 119.878 23.8362 119.878 22.6027V19.907C119.878 18.9401 120.238 18.1747 120.959 17.6144C121.679 17.0541 122.664 16.7739 123.91 16.7739C125.195 16.7739 126.201 17.0711 126.932 17.6691C127.66 18.267 128.023 19.1382 128.023 20.2828C128.023 20.8363 127.974 21.2634 127.878 21.5641C127.78 21.8647 127.589 22.0902 127.303 22.2337C127.017 22.3772 126.6 22.4524 126.057 22.4524H122.392V22.6232C122.392 23.7063 122.964 24.2462 124.108 24.2462C124.588 24.2427 124.98 24.1847 125.276 24.0651ZM122.794 19.0289C122.53 19.2988 122.395 19.6541 122.395 20.0949V20.7748H124.616C124.955 20.7748 125.188 20.7236 125.319 20.6245C125.449 20.5254 125.513 20.3477 125.513 20.0983C125.513 19.62 125.375 19.2544 125.103 19.005C124.832 18.7521 124.433 18.6291 123.914 18.6291C123.433 18.6223 123.059 18.759 122.794 19.0289Z" fill="#333333"/>
<path d="M136.641 17.3036L136.016 19.3399C135.745 19.1623 135.483 19.0393 135.236 18.9641C134.989 18.8889 134.685 18.8513 134.322 18.8513C133.464 18.8513 132.846 19.4048 132.472 20.5118V25.8692H129.937V19.7397C129.937 19.4014 129.87 19.1247 129.732 18.9094C129.594 18.6942 129.351 18.4618 129.001 18.2124L130.696 16.7774C131.137 17.0029 131.487 17.2421 131.748 17.4949C132.009 17.7478 132.196 18.0484 132.313 18.4003C132.574 17.9118 132.917 17.5154 133.347 17.2216C133.775 16.9278 134.301 16.7774 134.926 16.7774C135.6 16.774 136.172 16.9517 136.641 17.3036Z" fill="#333333"/>
<path d="M136.602 25.6675C136.302 25.3839 136.154 25.0422 136.154 24.6391C136.154 24.2359 136.302 23.8874 136.602 23.5936C136.903 23.2997 137.266 23.1494 137.693 23.1494C138.096 23.1494 138.445 23.2963 138.745 23.5936C139.046 23.8908 139.194 24.2393 139.194 24.6391C139.194 25.0422 139.049 25.3839 138.756 25.6675C138.463 25.9511 138.11 26.0912 137.693 26.0912C137.263 26.0912 136.899 25.9511 136.602 25.6675Z" fill="#333333"/>
<path d="M141.648 25.186C140.92 24.5813 140.557 23.7203 140.557 22.603V20.266C140.557 19.1453 140.92 18.2843 141.648 17.683C142.375 17.0782 143.413 16.7776 144.765 16.7776C146.453 16.7776 147.664 17.273 148.391 18.2672L146.657 19.6271C146.347 19.2752 146.061 19.0257 145.8 18.8822C145.538 18.7387 145.196 18.667 144.765 18.667C144.232 18.667 143.819 18.8071 143.526 19.0804C143.233 19.3572 143.088 19.7535 143.088 20.2694V22.6064C143.088 23.1223 143.233 23.5187 143.526 23.7954C143.819 24.0722 144.232 24.2088 144.765 24.2088C145.196 24.2088 145.538 24.1371 145.8 23.9936C146.061 23.8501 146.343 23.6007 146.657 23.2488L148.391 24.6086C148.027 25.1108 147.561 25.4867 146.989 25.7293C146.417 25.9753 145.676 26.0983 144.769 26.0983C143.416 26.0914 142.375 25.7908 141.648 25.186Z" fill="#333333"/>
<path d="M150.749 25.1857C150.022 24.581 149.658 23.72 149.658 22.6027V20.2657C149.658 19.145 150.022 18.284 150.749 17.6827C151.476 17.0779 152.514 16.7773 153.867 16.7773C155.219 16.7773 156.257 17.0779 156.984 17.6827C157.711 18.2874 158.075 19.1484 158.075 20.2657V22.6027C158.075 23.7234 157.711 24.5844 156.984 25.1857C156.257 25.7905 155.219 26.0911 153.867 26.0911C152.518 26.0911 151.476 25.7905 150.749 25.1857ZM155.106 23.7917C155.399 23.515 155.544 23.1186 155.544 22.6027V20.2657C155.544 19.7498 155.399 19.3534 155.106 19.0767C154.813 18.7999 154.4 18.6633 153.867 18.6633C153.334 18.6633 152.92 18.8034 152.627 19.0767C152.334 19.3534 152.19 19.7498 152.19 20.2657V22.6027C152.19 23.1186 152.334 23.515 152.627 23.7917C152.92 24.0685 153.334 24.2051 153.867 24.2051C154.4 24.2051 154.813 24.0685 155.106 23.7917Z" fill="#333333"/>
</g>
<defs>
<clipPath id="clip0_2_2448">
<rect width="147" height="28" fill="white" transform="translate(12 5)"/>
</clipPath>
</defs>
</svg>
