<svg width="168" height="22" viewBox="0 0 168 22" fill="none" xmlns="http://www.w3.org/2000/svg">
<path d="M87.1034 15.3593H74.6873V16.4164H87.1034V15.3593Z" fill="#212121"/>
<path d="M85.9618 10.4045H75.8204V11.4616H85.9618V10.4045Z" fill="#212121"/>
<path d="M37.1547 5.96502C36.771 5.79958 36.3599 5.71686 35.9122 5.71686H29.8455C29.3979 5.71686 28.9958 5.79958 28.6121 5.9742C27.799 6.34188 27.2325 6.91184 26.8671 7.72991C26.7026 8.11601 26.6204 8.52967 26.6204 8.97088V13.3555C26.6204 13.8059 26.7026 14.2196 26.8762 14.6149C27.2325 15.4238 27.799 16.0029 28.6213 16.3706C28.9867 16.5268 29.407 16.6096 29.8547 16.6096H35.9213C36.369 16.6096 36.7801 16.5268 37.173 16.3614C37.9679 16.0029 38.5435 15.4238 38.8998 14.6057C38.9455 14.4862 38.9912 14.3575 39.0277 14.238H37.8856C37.7851 14.477 37.6298 14.6976 37.438 14.8906C37.0268 15.3043 36.506 15.5249 35.9213 15.5249H29.8547C29.27 15.5249 28.7492 15.3043 28.3381 14.8906C27.9269 14.477 27.7076 13.9438 27.7076 13.3555V8.97088C27.7076 8.38254 27.9269 7.84943 28.3381 7.43577C28.7492 7.02212 29.27 6.8107 29.8547 6.8107H35.9213C36.506 6.8107 37.0268 7.0313 37.438 7.43577C37.6298 7.62882 37.7851 7.84943 37.8947 8.0884H39.0368C39.0003 7.9597 38.9546 7.83106 38.9089 7.71154C38.5343 6.91184 37.9587 6.33269 37.1547 5.96502Z" fill="#212121"/>
<path d="M68.4562 5.9466C68.0998 5.79035 67.7253 5.71681 67.3139 5.71681H57.8581V6.80146H67.3139C67.8257 6.80146 68.2825 6.99452 68.6389 7.36219C69.0043 7.72987 69.187 8.19868 69.187 8.71343C69.187 9.22823 68.9952 9.68781 68.6389 10.0647C68.2735 10.4416 67.8167 10.6346 67.3048 10.6346H57.8581V16.6279H67.3139C67.7253 16.6279 68.0998 16.5544 68.4562 16.3981C68.8216 16.2418 69.1229 16.0304 69.4061 15.7546C69.982 15.1388 70.2652 14.4494 70.2652 13.6404C70.2652 12.9511 70.0462 12.326 69.5797 11.7285L69.1507 11.1769L69.5894 10.6346C69.7993 10.3772 69.9639 10.0831 70.0734 9.76134C70.192 9.42123 70.2561 9.07192 70.2561 8.74104C70.2561 7.91373 69.9729 7.21512 69.3879 6.60847C69.1229 6.31428 68.8125 6.10286 68.4562 5.9466ZM69.1961 13.6221C69.1961 14.1368 69.0043 14.6056 68.648 14.9733C68.2916 15.341 67.8257 15.534 67.323 15.534H58.9362V11.7101H67.323C67.8348 11.7101 68.2916 11.9032 68.6571 12.28C69.0043 12.6477 69.1961 13.1073 69.1961 13.6221Z" fill="#212121"/>
<path d="M87.1036 5.83636H74.6874V6.89346H87.1036V5.83636Z" fill="#212121"/>
<path d="M101.978 13.4107L102.938 12.9603C103.842 12.5375 104.482 11.8848 104.883 10.9564C105.075 10.4876 105.176 9.99124 105.176 9.51323C105.176 9.02604 105.075 8.52967 104.874 8.03329C104.463 7.10489 103.805 6.44302 102.873 6.02018C102.426 5.81795 101.96 5.72604 101.448 5.72604L92.7775 5.71686V6.8107H101.448C102.17 6.8107 102.809 7.08647 103.321 7.60127C103.833 8.11601 104.098 8.77783 104.098 9.51323C104.098 10.2394 103.833 10.9012 103.321 11.416C102.809 11.9308 102.161 12.2065 101.448 12.2065H92.7775V16.6188H93.8465V13.2912H100.58L103.011 16.6188H104.335L101.978 13.4107Z" fill="#212121"/>
<path d="M43.9065 5.84509C43.9065 5.84509 42.5086 5.84509 42.463 5.84509C42.4995 5.88189 47.9997 11.6638 47.9997 11.6638C47.9997 11.6638 47.9997 14.6236 47.9997 16.3242C47.9997 16.3702 47.9997 16.4161 47.9997 16.4529C48.429 16.4529 48.6575 16.4529 49.0777 16.4529C49.0777 16.4345 49.0869 11.2961 49.0869 11.2961L43.9065 5.84509Z" fill="#212121"/>
<path d="M53.3355 5.83636C53.3355 5.83636 49.5621 9.66948 49.3246 9.90851C49.6078 10.1935 49.7905 10.3865 50.0737 10.6807C51.5721 9.13637 53.2898 7.39902 54.8064 5.84555C54.2765 5.83636 53.3355 5.83636 53.3355 5.83636Z" fill="#212121"/>
<path d="M116.276 8.89733L119.958 5.83636H118.213L111.315 11.416V5.83636H110.201V16.4533H111.315V12.8684L115.409 9.60513L120.342 16.4533H121.703L116.276 8.89733Z" fill="#212121"/>
<path d="M10.0931 0.498169L0.340546 5.83533V16.5096L10.0931 21.8468L19.8457 16.5096V5.83533L10.0931 0.498169ZM1.3308 7.00342L9.51362 20.4462L1.3308 15.9678V7.00342ZM10.5992 11.4479L17.2201 7.82215L10.5992 18.6904V11.4479ZM10.1025 10.6366L3.46749 7.00045H16.7406L10.1025 10.6366ZM9.60895 11.4508V18.7259L2.96455 7.80879L9.60895 11.4493V11.4508ZM18.8554 7.01376V15.9692L10.6726 20.4477L18.8554 7.01376ZM1.90714 6.06182L10.0931 1.58189L18.2775 6.06182H1.9087H1.90714Z" fill="#212121"/>
</svg>
