<svg width="173" height="32" viewBox="0 0 173 32" fill="none" xmlns="http://www.w3.org/2000/svg">
<g clip-path="url(#clip0_2_2353)">
<path d="M123.516 22.3408H105.909V23.8784H123.516V22.3408Z" fill="#212121"/>
<path d="M121.897 15.1338H107.516V16.6714H121.897V15.1338Z" fill="#212121"/>
<path d="M52.6866 8.67639C52.1425 8.43575 51.5595 8.31543 50.9246 8.31543H42.3219C41.6871 8.31543 41.117 8.43575 40.5729 8.68975C39.4199 9.22455 38.6166 10.0536 38.0984 11.2435C37.8652 11.8051 37.7485 12.4068 37.7485 13.0486V19.4262C37.7485 20.0813 37.8652 20.683 38.1114 21.258C38.6166 22.4345 39.4199 23.2769 40.5859 23.8117C41.1041 24.039 41.7001 24.1593 42.3349 24.1593H50.9376C51.5724 24.1593 52.1554 24.039 52.7125 23.7984C53.8397 23.2769 54.6559 22.4345 55.1612 21.2446C55.226 21.0708 55.2907 20.8836 55.3426 20.7098H53.723C53.5805 21.0574 53.3603 21.3783 53.0882 21.6591C52.5052 22.2608 51.7668 22.5817 50.9376 22.5817H42.3349C41.5058 22.5817 40.7673 22.2608 40.1843 21.6591C39.6012 21.0574 39.2903 20.2819 39.2903 19.4262V13.0486C39.2903 12.1928 39.6012 11.4173 40.1843 10.8157C40.7673 10.214 41.5058 9.90647 42.3349 9.90647H50.9376C51.7668 9.90647 52.5052 10.2273 53.0882 10.8157C53.3603 11.0965 53.5805 11.4173 53.736 11.7649H55.3555C55.3037 11.5777 55.2389 11.3906 55.1741 11.2168C54.6429 10.0536 53.8267 9.21119 52.6866 8.67639Z" fill="#212121"/>
<path d="M97.0731 8.6496C96.5678 8.42232 96.0367 8.31536 95.4534 8.31536H82.0446V9.89304H95.4534C96.1792 9.89304 96.8269 10.1738 97.3322 10.7086C97.8504 11.2434 98.1095 11.9254 98.1095 12.6741C98.1095 13.4229 97.8375 14.0914 97.3322 14.6396C96.814 15.1878 96.1663 15.4686 95.4405 15.4686H82.0446V24.1861H95.4534C96.0367 24.1861 96.5678 24.0791 97.0731 23.8518C97.5913 23.6245 98.0186 23.317 98.4201 22.9158C99.2368 22.0201 99.6383 21.0173 99.6383 19.8406C99.6383 18.8379 99.3278 17.9287 98.6663 17.0596L98.058 16.2574L98.68 15.4686C98.9777 15.0942 99.2111 14.6663 99.3664 14.1983C99.5345 13.7036 99.6255 13.1955 99.6255 12.7142C99.6255 11.5109 99.224 10.4947 98.3944 9.61232C98.0186 9.1844 97.5784 8.87688 97.0731 8.6496ZM98.1224 19.8139C98.1224 20.5626 97.8504 21.2446 97.3451 21.7794C96.8398 22.3142 96.1792 22.595 95.4662 22.595H83.5735V17.0329H95.4662C96.192 17.0329 96.8398 17.3137 97.358 17.8618C97.8504 18.3966 98.1224 19.0652 98.1224 19.8139Z" fill="#212121"/>
<path d="M123.516 8.48926H105.909V10.0269H123.516V8.48926Z" fill="#212121"/>
<path d="M144.608 19.5065L145.969 18.8513C147.251 18.2363 148.158 17.287 148.728 15.9366C149 15.2547 149.143 14.5327 149.143 13.8374C149.143 13.1288 149 12.4068 148.715 11.6848C148.133 10.3344 147.199 9.37167 145.878 8.75663C145.243 8.46247 144.582 8.32879 143.857 8.32879L131.562 8.31543V9.90647H143.857C144.88 9.90647 145.787 10.3076 146.513 11.0564C147.239 11.8051 147.614 12.7677 147.614 13.8374C147.614 14.8937 147.239 15.8563 146.513 16.6051C145.787 17.3538 144.867 17.7549 143.857 17.7549H131.562V24.1728H133.077V19.3326H142.626L146.073 24.1728H147.951L144.608 19.5065Z" fill="#212121"/>
<path d="M62.2609 8.50195C62.2609 8.50195 60.2786 8.50195 60.2139 8.50195C60.2657 8.55547 68.0651 16.9655 68.0651 16.9655C68.0651 16.9655 68.0651 21.2708 68.0651 23.7443C68.0651 23.8112 68.0651 23.878 68.0651 23.9315C68.674 23.9315 68.9979 23.9315 69.5938 23.9315C69.5938 23.9048 69.6068 16.4307 69.6068 16.4307L62.2609 8.50195Z" fill="#212121"/>
<path d="M75.6314 8.48926C75.6314 8.48926 70.2807 14.0647 69.9438 14.4124C70.3454 14.8269 70.6046 15.1076 71.0062 15.5355C73.131 13.2893 75.5667 10.7622 77.7173 8.50262C76.9659 8.48926 75.6314 8.48926 75.6314 8.48926Z" fill="#212121"/>
<path d="M164.883 12.9416L170.105 8.48926H167.631L157.848 16.6051V8.48926H156.268V23.9321H157.848V18.7177L163.653 13.9711L170.649 23.9321H172.579L164.883 12.9416Z" fill="#212121"/>
<path d="M14.3123 0.724609L0.48291 8.48776V24.014L14.3123 31.7771L28.1418 24.014V8.48776L14.3123 0.724609ZM1.88712 10.1868L13.4906 29.74L1.88712 23.2258V10.1868ZM15.03 16.6514L24.4187 11.3777L15.03 27.186V16.6514ZM14.3257 15.4714L4.91702 10.1825H23.7387L14.3257 15.4714ZM13.6258 16.6557V27.2377L4.20384 11.3582L13.6258 16.6536V16.6557ZM26.7376 10.2018V23.228L15.134 29.7422L26.7376 10.2018ZM2.7044 8.8172L14.3123 2.30093L25.9181 8.8172H2.70661H2.7044Z" fill="#212121"/>
</g>
<defs>
<clipPath id="clip0_2_2353">
<rect width="173" height="32" fill="white"/>
</clipPath>
</defs>
</svg>
