<svg width="122" height="38" viewBox="0 0 122 38" fill="none" xmlns="http://www.w3.org/2000/svg">
<g clip-path="url(#clip0_2_2497)">
<g clip-path="url(#clip1_2_2497)">
<path d="M1.95459 26.637V11.1389L9.04825 7.17725L16.3656 11.4267V17.2107H13.617V12.9612L9.15958 10.2451L4.28728 12.9612V28.0423L1.95459 26.637Z" fill="black"/>
<path d="M7.51483 14.6543V29.8961L14.4804 34.1456L17.2605 32.6762L10.0702 28.4583V16.2843L7.51483 14.6543Z" fill="black"/>
<path d="M27.693 11.3628V26.8609L20.5993 30.8226L13.282 26.5731V20.7892H16.0295V25.0397L20.4869 27.7557L25.3603 25.0397V9.95752L27.693 11.3628Z" fill="black"/>
<path d="M22.1328 23.3455V8.10372L15.1672 3.85425L12.3871 5.3236L19.5763 9.54157V21.7165L22.1328 23.3455Z" fill="black"/>
</g>
<path d="M40.6991 17.5905H53.4963V20.3595H40.6991V17.5905ZM52.9475 10.9299H56.2653V27.0699H52.9475V10.9299ZM37.7804 10.9299H41.0982V27.0699H37.7804V10.9299Z" fill="#193049"/>
<path d="M63.4131 20.3345V24.3009H75.8611V27.0699H60.0953V10.9299H75.8361V13.6989H63.4131V17.7152H73.591V20.3345H63.4131Z" fill="#193049"/>
<path d="M82.5854 10.9299V24.3009H93.3121V27.0699H79.2676V10.9299H82.5854Z" fill="#193049"/>
<path d="M96.8675 10.9299H100.185V27.0699H96.8675V10.9299Z" fill="#193049"/>
<path d="M116.929 10.9299H120.971L113.337 19.8356L113.237 19.9354L107.575 27.0699H103.533L111.391 17.7152L111.466 17.6404L116.929 10.9299ZM107.824 10.9299L113.212 17.6903L113.262 17.7651L121.045 27.0699H116.83L111.242 19.8356L111.167 19.7857L103.783 10.9299H107.824Z" fill="#193049"/>
</g>
<defs>
<clipPath id="clip0_2_2497">
<rect width="121" height="38" fill="white" transform="translate(0.5)"/>
</clipPath>
<clipPath id="clip1_2_2497">
<rect width="28" height="30" fill="white" transform="translate(0.95459 4)"/>
</clipPath>
</defs>
</svg>
