<svg width="63" height="64" viewBox="0 0 63 64" fill="none" xmlns="http://www.w3.org/2000/svg">
<rect x="0.5" y="0.5" width="61.359" height="63" rx="7.5" fill="#2684FF" fill-opacity="0.1"/>
<rect x="0.5" y="0.5" width="61.359" height="63" rx="7.5" stroke="#2684FF"/>
<path d="M37.9685 17.0054L44.3621 23.5962V35.5269L51.2166 42.0513L48.2507 46.9946H17.6677L11.1423 40.4702V23.5962L17.6677 17.0054H37.9685ZM19.5798 21.144C17.3709 21.1441 15.5801 22.9351 15.5798 25.144V38.9624C15.5799 41.1715 17.3708 42.9624 19.5798 42.9624H46.7859L40.6355 37.8765C40.1761 37.4966 39.91 36.9315 39.9099 36.3354V25.144C39.9097 22.9351 38.1189 21.144 35.9099 21.144H19.5798Z" fill="#2684FF"/>
</svg>
