<svg width="122" height="38" viewBox="0 0 122 38" fill="none" xmlns="http://www.w3.org/2000/svg">
<g clip-path="url(#clip0_2_2566)">
<g clip-path="url(#clip1_2_2566)">
<path fill-rule="evenodd" clip-rule="evenodd" d="M41.3528 9.90918H45.5889L50.043 20.0037H47.655L44.1649 12.0963H43.5369V20.0037H41.3528V9.90918Z" fill="#212121"/>
<path d="M85.8959 9.90918H83.7115V20.0037H85.8959V9.90918Z" fill="#212121"/>
<path fill-rule="evenodd" clip-rule="evenodd" d="M83.7115 20.0037H81.3241L77.8356 12.0963H76.3996V20.0037H74.2156V9.90918H79.2597L83.7115 20.0037Z" fill="#212121"/>
<path fill-rule="evenodd" clip-rule="evenodd" d="M54.4951 9.90918L50.043 20.0037H52.429L55.9191 12.0963H56.5472V20.0037H58.7312V9.90918H54.4951Z" fill="#212121"/>
<path d="M68.4994 9.90918H64.5033L60.0493 20.0037H62.4373L63.8893 16.7149H69.1134L70.5634 20.0037H72.9515L68.4974 9.90918H68.4994ZM64.8534 14.5278L65.9253 12.0983H67.0754L68.1474 14.5278H64.8534Z" fill="#212121"/>
<path fill-rule="evenodd" clip-rule="evenodd" d="M87.1098 12.0963V9.90918H99.4884V12.0963H94.3897V20.0037H92.2061V12.0963H87.1098Z" fill="#212121"/>
<path fill-rule="evenodd" clip-rule="evenodd" d="M102.884 9.90918H100.7V20.0037H110.206V17.8165H102.884V9.90918Z" fill="#212121"/>
<path fill-rule="evenodd" clip-rule="evenodd" d="M121.735 9.90918V12.0963H113.604V13.7166H120.652V15.9038H113.604V17.8165H121.735V20.0037H111.42V9.90918H121.735Z" fill="#212121"/>
<path d="M41.1929 28.1418V21.6865H42.7209L44.959 25.8645V21.6865H46.387V28.1418H44.859L42.6209 23.9638V28.1418H41.1929Z" fill="#212121"/>
<path d="M47.639 21.6865H51.5811V22.8863H49.1311V24.3524H51.5811V25.524H49.1311V26.9441H51.5811V28.1438H47.639V21.6865Z" fill="#212121"/>
<path d="M53.8831 28.1418V23.0144H52.1151V21.6865H57.1432V23.0144H55.3652V28.1418H53.8831Z" fill="#212121"/>
<path d="M59.7993 28.1418L57.5252 21.6865H59.0913L60.4353 25.9747L61.7153 21.6865H62.8753L64.1554 25.9747L65.4994 21.6865H67.0654L64.7914 28.1418H63.5754L62.2953 24.084L61.0153 28.1418H59.7993Z" fill="#212121"/>
<path d="M72.7176 27.3346C72.0915 27.9955 71.2555 28.326 70.2115 28.326C69.1675 28.326 68.3335 27.9955 67.7074 27.3346C67.0814 26.6737 66.7675 25.8665 66.7675 24.9131C66.7675 23.9598 67.0814 23.1526 67.7074 22.4917C68.3335 21.8307 69.1695 21.5002 70.2115 21.5002C71.2535 21.5002 72.0895 21.8307 72.7176 22.4917C73.3436 23.1526 73.6576 23.9598 73.6576 24.9131C73.6576 25.8665 73.3436 26.6737 72.7176 27.3346ZM70.2115 26.9881C70.8015 26.9881 71.2635 26.7898 71.5975 26.3933C71.9315 25.9967 72.0995 25.504 72.0995 24.9131C72.0995 24.3222 71.9315 23.8296 71.5975 23.433C71.2635 23.0364 70.8015 22.8382 70.2115 22.8382C69.6215 22.8382 69.1515 23.0364 68.8155 23.433C68.4814 23.8296 68.3175 24.3222 68.3234 24.9131C68.3175 25.504 68.4814 25.9967 68.8155 26.3933C69.1495 26.7898 69.6155 26.9881 70.2115 26.9881Z" fill="#212121"/>
<path d="M79.5777 24.0179C79.5777 24.4846 79.4697 24.9012 79.2557 25.2677C79.0398 25.6342 78.7457 25.9086 78.3717 26.0929L79.5037 28.1398H77.8097L76.7957 26.3513H76.0137V28.1398H74.5216V21.6846H77.2657C77.9357 21.6846 78.4877 21.9049 78.9237 22.3435C79.3598 22.7842 79.5777 23.341 79.5777 24.0179ZM76.0137 25.1335H77.0357C77.3357 25.1335 77.5837 25.0294 77.7777 24.8191C77.9717 24.6108 78.0677 24.3424 78.0677 24.0159C78.0677 23.6895 77.9717 23.423 77.7777 23.2128C77.5837 23.0045 77.3377 22.8983 77.0357 22.8983H76.0137V25.1335Z" fill="#212121"/>
<path d="M85.8958 21.6846L83.3636 24.8852L85.8958 28.1419H84.1175L81.9999 25.2918V28.1419H80.5078V21.6866H81.9999V24.5547L84.1278 21.6866H85.8958V21.6846Z" fill="#212121"/>
<path fill-rule="evenodd" clip-rule="evenodd" d="M18.6264 8.48339L19.4464 3.18979C18.6344 3.0636 17.8044 2.99951 16.9764 2.99951H16.9644V13.801H16.9764C17.4304 13.801 17.8804 13.8591 18.3144 13.9753L19.7084 8.71172C19.3524 8.61758 18.9904 8.54148 18.6244 8.4854L18.6264 8.48339Z" fill="#212121"/>
<path fill-rule="evenodd" clip-rule="evenodd" d="M14.3763 14.498L11.6923 9.86734C11.3762 10.0516 11.0683 10.2519 10.7722 10.4662L7.56616 6.06788C8.24018 5.57517 8.9582 5.13253 9.70024 4.75199L12.1403 9.52084C12.6362 9.26648 13.1502 9.05217 13.6783 8.87993L12.0163 3.7866C12.8083 3.52823 13.6303 3.32994 14.4543 3.19775L15.3083 8.57548C14.9463 8.63356 14.5883 8.71168 14.2343 8.80581L15.6223 13.9772C15.1863 14.0954 14.7663 14.2697 14.3743 14.498H14.3763Z" fill="#212121"/>
<path fill-rule="evenodd" clip-rule="evenodd" d="M7.57616 14.2196L2.73005 11.75C2.35005 12.4951 2.02804 13.2782 1.77203 14.0734L6.94615 15.7478C7.11615 15.225 7.32816 14.7102 7.57616 14.2196Z" fill="#212121"/>
<path fill-rule="evenodd" clip-rule="evenodd" d="M26.0945 13.7028L21.4725 16.3927C21.7005 16.7852 21.8745 17.2058 21.9925 17.6424L27.1545 16.2484C27.2505 16.6029 27.3286 16.9615 27.3846 17.324L32.7547 16.4668C32.6227 15.6396 32.4246 14.8184 32.1666 14.0232L27.0806 15.6876C26.9086 15.1588 26.6946 14.6441 26.4406 14.1494L31.2006 11.7039C30.8207 10.9629 30.3786 10.2438 29.8866 9.56885L25.4965 12.7815C25.7126 13.0779 25.9105 13.3864 26.0966 13.7028H26.0945Z" fill="#212121"/>
<path fill-rule="evenodd" clip-rule="evenodd" d="M24.2085 4.72989C23.4625 4.35134 22.6825 4.02888 21.8885 3.77051L20.2184 8.95196C20.7404 9.1202 21.2544 9.3325 21.7445 9.58286L24.2085 4.72789V4.72989Z" fill="#212121"/>
<path fill-rule="evenodd" clip-rule="evenodd" d="M22.2785 9.77116L19.5645 14.4899C19.9584 14.7163 20.3205 14.9947 20.6425 15.3171L28.2566 7.66614C27.6666 7.07729 27.0246 6.53051 26.3506 6.03979L23.2105 10.376C22.9105 10.1597 22.6005 9.95743 22.2805 9.77116H22.2785Z" fill="#212121"/>
<path fill-rule="evenodd" clip-rule="evenodd" d="M12.4763 16.4068L7.76614 13.6849C7.95014 13.3644 8.15414 13.054 8.37015 12.7535L4.04205 9.60699C4.53206 8.93202 5.07808 8.28909 5.66809 7.69824L13.3043 15.3252C12.9823 15.6477 12.7043 16.0122 12.4783 16.4048L12.4763 16.4068Z" fill="#212121"/>
<path fill-rule="evenodd" clip-rule="evenodd" d="M6.70412 16.2585L11.9582 17.6585C11.8422 18.0932 11.7842 18.5438 11.7842 19.0005H1C1 18.1693 1.064 17.3341 1.192 16.5189L6.47812 17.3441C6.53612 16.9776 6.61013 16.6171 6.70613 16.2585H6.70412Z" fill="#212121"/>
<path fill-rule="evenodd" clip-rule="evenodd" d="M26.3785 23.7794L31.2247 26.249C31.6026 25.5039 31.9267 24.7207 32.1826 23.9256L27.0085 22.2512C26.8386 22.7739 26.6266 23.2887 26.3785 23.7794Z" fill="#212121"/>
<path fill-rule="evenodd" clip-rule="evenodd" d="M19.5784 23.501L22.2625 28.1317C22.5784 27.9474 22.8865 27.7471 23.1825 27.5328L26.3886 31.9311C25.7146 32.4239 24.9965 32.8665 24.2545 33.247L21.8145 28.4782C21.3184 28.7325 20.8064 28.9468 20.2764 29.1191L21.9365 34.2124C21.1444 34.4707 20.3224 34.6691 19.4984 34.8012L18.6444 29.4235C19.0064 29.3655 19.3644 29.2873 19.7184 29.1932L18.3304 24.0218C18.7664 23.9036 19.1864 23.7293 19.5784 23.501Z" fill="#212121"/>
<path fill-rule="evenodd" clip-rule="evenodd" d="M7.86016 24.2961L12.4823 21.6062C12.2543 21.2136 12.0803 20.7931 11.9623 20.3564L6.80014 21.7504C6.70413 21.396 6.62613 21.0374 6.57013 20.6749L1.20001 21.5321C1.33202 22.3593 1.53002 23.1805 1.78803 23.9756L6.87414 22.3112C7.04614 22.84 7.26015 23.3548 7.51415 23.8495L2.75405 26.295C3.13406 27.038 3.57607 27.7551 4.06807 28.43L8.45817 25.2174C8.24217 24.921 8.04417 24.6125 7.85816 24.2961H7.86016Z" fill="#212121"/>
<path fill-rule="evenodd" clip-rule="evenodd" d="M9.74622 33.2709C10.4922 33.6495 11.2722 33.9719 12.0662 34.2303L13.7363 29.0488C13.2142 28.8806 12.7002 28.6683 12.2102 28.418L9.74622 33.2709Z" fill="#212121"/>
<path fill-rule="evenodd" clip-rule="evenodd" d="M11.6763 28.2278L14.3903 23.511C13.9963 23.2846 13.6343 23.0062 13.3123 22.6838L5.69812 30.3348C6.28813 30.9237 6.93015 31.4705 7.60416 31.9611L10.7443 27.6249C11.0442 27.8412 11.3543 28.0435 11.6743 28.2298L11.6763 28.2278Z" fill="#212121"/>
<path fill-rule="evenodd" clip-rule="evenodd" d="M21.4784 21.5923L26.1885 24.3142C26.0046 24.6347 25.8005 24.9451 25.5846 25.2456L29.9126 28.392C29.4227 29.067 28.8766 29.71 28.2866 30.3008L20.6504 22.6739C20.9724 22.3514 21.2505 21.9868 21.4765 21.5943L21.4784 21.5923Z" fill="#212121"/>
<path fill-rule="evenodd" clip-rule="evenodd" d="M15.6403 24.0257L14.2463 29.2892C14.6023 29.3834 14.9643 29.4594 15.3303 29.5155L14.5083 34.8092C15.3204 34.9354 16.1503 34.9994 16.9784 34.9994H16.9904V24.1979H16.9784C16.5244 24.1979 16.0743 24.1398 15.6403 24.0237V24.0257Z" fill="#212121"/>
<path fill-rule="evenodd" clip-rule="evenodd" d="M21.9965 20.3405C22.1124 19.9059 22.1705 19.4553 22.1705 18.9985H32.9568C32.9568 19.8297 32.8927 20.6649 32.7647 21.4801L27.4786 20.6549C27.4206 21.0215 27.3466 21.382 27.2506 21.7405L21.9965 20.3405Z" fill="#212121"/>
</g>
</g>
<defs>
<clipPath id="clip0_2_2566">
<rect width="121" height="38" fill="white" transform="translate(0.5)"/>
</clipPath>
<clipPath id="clip1_2_2566">
<rect width="121" height="32" fill="white" transform="translate(1 2.99951)"/>
</clipPath>
</defs>
</svg>
