<svg width="122" height="38" viewBox="0 0 122 38" fill="none" xmlns="http://www.w3.org/2000/svg">
<g clip-path="url(#clip0_131_3712)">
<g clip-path="url(#clip1_131_3712)">
<path d="M49.5929 19.0645L45.4486 29.4025H40.8184L47.2535 13.5209L49.5929 19.0645Z" fill="#444444"/>
<path d="M60.0314 29.3056H55.4052L54.3968 26.8413L49.7545 26.8248L52.3297 21.7579L47.6914 10.3879H52.3217L60.0334 29.3035L60.0314 29.3056Z" fill="#444444"/>
<path d="M82.3317 10.4829H78.0645V29.3014H82.3317V10.4829Z" fill="#444444"/>
<path d="M78.0684 24.8434V29.2973H90.5515V24.8434H78.0684Z" fill="#444444"/>
<path d="M96.8123 14.7922V24.9796H105.5V29.3096H92.7165V29.2292H92.6641V10.4581H96.8123V10.4622H105.5V14.7922H96.8123Z" fill="#444444"/>
<path d="M103.423 17.5042V21.8384H98.541L99.3376 17.5042H103.421H103.423Z" fill="#444444"/>
<path d="M72.5288 23.3533L75.6506 26.1003C73.9868 28.1704 71.4862 29.4892 68.689 29.4892C63.6615 29.4892 59.5898 25.2397 59.5898 19.9912C59.5898 14.7427 63.6615 10.4932 68.689 10.4932C71.5063 10.4932 74.0292 11.8327 75.705 13.9358L72.7103 16.8417C71.7826 15.5353 70.2983 14.687 68.6265 14.687C65.8254 14.687 63.5546 17.0564 63.5546 19.9809C63.5546 22.9054 65.8254 25.2748 68.6265 25.2748C70.1975 25.2748 71.6051 24.5235 72.5328 23.3533H72.5288Z" fill="#444444"/>
<path d="M118.084 21.7889L121.343 29.4397H117.003L113.894 22.1294L113.874 22.0778V18.3257H115.441C115.987 18.3257 116.481 18.0924 116.844 17.7168C117.201 17.3412 117.423 16.8252 117.423 16.2556C117.423 15.1142 116.538 14.1896 115.441 14.1896H107.969V10.3859H116.271C119.161 10.3859 121.501 12.8316 121.501 15.849V16.6725C121.501 19.0212 120.081 21.0252 118.084 21.7889Z" fill="#444444"/>
<path d="M112.301 16.0141V29.4459H107.969L107.957 17.5145L112.301 16.0141Z" fill="#444444"/>
<path d="M35.8461 21.7889L39.105 29.4397H34.7651L31.6575 22.1294L31.6373 22.0778V18.3257H33.2042C33.7508 18.3257 34.2448 18.0924 34.6078 17.7168C34.9648 17.3412 35.1866 16.8252 35.1866 16.2556C35.1866 15.1142 34.2993 14.1896 33.2022 14.1896H25.7305V10.3859H34.0331C36.923 10.3859 39.2623 12.8316 39.2623 15.849V16.6725C39.2623 19.0212 37.8426 21.0252 35.8461 21.7889Z" fill="#444444"/>
<path d="M30.0626 16.0141V29.4459H25.7308L25.7188 17.5145L30.0626 16.0141Z" fill="#444444"/>
<path d="M9.46951 13.8408C6.47476 15.0193 4.96831 18.5052 6.09361 21.6279C7.21891 24.7505 10.5585 26.3356 13.5533 25.1551C16.548 23.9745 18.0585 20.4907 16.9332 17.3639C15.8079 14.2371 12.4643 12.6603 9.46951 13.8367V13.8408ZM12.5086 22.2615C11.0465 22.8352 9.41909 22.0633 8.87056 20.5381C8.32001 19.0129 9.05609 17.3185 10.5182 16.7447C11.9803 16.1709 13.6037 16.9346 14.1522 18.4598C14.7028 19.985 13.9667 21.6836 12.5086 22.2574V22.2615Z" fill="#1278FA"/>
<path d="M9.46951 13.8408C6.47476 15.0193 4.96831 18.5052 6.09361 21.6279C7.21891 24.7505 10.5585 26.3356 13.5533 25.1551C16.548 23.9745 18.0585 20.4907 16.9332 17.3639C15.8079 14.2371 12.4643 12.6603 9.46951 13.8367V13.8408ZM12.5086 22.2615C11.0465 22.8352 9.41909 22.0633 8.87056 20.5381C8.32001 19.0129 9.05609 17.3185 10.5182 16.7447C11.9803 16.1709 13.6037 16.9346 14.1522 18.4598C14.7028 19.985 13.9667 21.6836 12.5086 22.2574V22.2615Z" fill="#1278FA"/>
<path d="M9.46951 13.8408C6.47476 15.0193 4.96831 18.5052 6.09361 21.6279C7.21891 24.7505 10.5585 26.3356 13.5533 25.1551C16.548 23.9745 18.0585 20.4907 16.9332 17.3639C15.8079 14.2371 12.4643 12.6603 9.46951 13.8367V13.8408ZM12.5086 22.2615C11.0465 22.8352 9.41909 22.0633 8.87056 20.5381C8.32001 19.0129 9.05609 17.3185 10.5182 16.7447C11.9803 16.1709 13.6037 16.9346 14.1522 18.4598C14.7028 19.985 13.9667 21.6836 12.5086 22.2574V22.2615Z" fill="#1278FA"/>
<path d="M7.62819 8.73889V8.74714C2.11261 10.9163 -0.745007 17.205 1.02764 22.9921L4.39548 21.6052C3.35084 17.7829 5.26869 13.6984 8.90071 12.2681V12.2619C12.4621 10.8668 16.4088 12.5117 18.0987 15.9625L21.4625 14.5776C19.0445 9.21565 13.0369 6.61721 7.62819 8.73889ZM22.0937 16.3216L18.7158 17.7127C19.5669 21.4442 17.651 25.3408 14.1219 26.7298C10.6633 28.0899 6.84976 26.5709 5.08316 23.3265L1.70726 24.7175C4.21196 29.869 10.0865 32.3415 15.3924 30.2529C20.8071 28.1209 23.6667 22.0242 22.0937 16.3216Z" fill="#1278FA"/>
</g>
</g>
<defs>
<clipPath id="clip0_131_3712">
<rect width="121" height="38" fill="white" transform="translate(0.5)"/>
</clipPath>
<clipPath id="clip1_131_3712">
<rect width="121" height="23" fill="white" transform="translate(0.5 8)"/>
</clipPath>
</defs>
</svg>
