<svg width="63" height="64" viewBox="0 0 63 64" fill="none" xmlns="http://www.w3.org/2000/svg">
<rect x="0.5" y="0.5" width="61.359" height="63" rx="7.5" fill="#2684FF" fill-opacity="0.1"/>
<rect x="0.5" y="0.5" width="61.359" height="63" rx="7.5" stroke="#2684FF"/>
<path d="M34.207 17.8594L38.7188 22.4814H44.4404L48.8428 27.2686V41.0791L44.1104 46.1406H28.0986L23.4775 41.0791H18.1396L13.5176 36.5674V22.4814L18.1396 17.8594H34.207ZM40.4463 25.7686C39.916 25.7687 39.4072 25.9786 39.0322 26.3535L27.2188 38.168C26.8437 38.543 26.6328 39.0516 26.6328 39.582V40.8311C26.633 41.9355 27.5284 42.831 28.6328 42.8311H43.9463C45.0506 42.8309 45.9461 41.9353 45.9463 40.8311V27.7686C45.9463 26.6641 45.0507 25.7688 43.9463 25.7686H40.4463ZM18.2207 20.7539C17.1163 20.7539 16.221 21.6496 16.2207 22.7539V35.6123C16.2207 36.7169 17.1161 37.6123 18.2207 37.6123H22.2871C22.8325 37.6122 23.3543 37.3891 23.7314 36.9951L35.0176 25.207C35.3739 24.8348 35.5732 24.3395 35.5732 23.8242V22.7539C35.573 21.6496 34.6777 20.7539 33.5732 20.7539H18.2207Z" fill="#2684FF"/>
<path d="M18.8164 24.459C18.8164 24.7351 19.0403 24.959 19.3164 24.959H29.748C30.1465 24.959 30.3848 24.5156 30.165 24.1832L29.7168 23.5054C29.6242 23.3654 29.4676 23.2812 29.2998 23.2812H19.3164C19.0403 23.2812 18.8164 23.5051 18.8164 23.7812V24.459Z" fill="#2684FF"/>
<path d="M44.0791 36.7776C44.0791 37.0537 43.8552 37.2776 43.5791 37.2776H33.1475C32.749 37.2776 32.5107 36.8342 32.7305 36.5018L33.1787 35.824C33.2713 35.684 33.4279 35.5998 33.5958 35.5998H43.5791C43.8552 35.5998 44.0791 35.8237 44.0791 36.0998V36.7776Z" fill="#2684FF"/>
<path d="M18.8164 27.4778C18.8164 27.7539 19.0403 27.9778 19.3164 27.9778H27.11C27.5085 27.9778 27.7469 27.5344 27.5271 27.202L27.0789 26.5242C26.9863 26.3842 26.8296 26.3 26.6618 26.3H19.3164C19.0403 26.3 18.8164 26.5239 18.8164 26.8V27.4778Z" fill="#2684FF"/>
<path d="M44.0791 39.7966C44.0791 40.0728 43.8552 40.2966 43.5791 40.2966H35.7855C35.387 40.2966 35.1486 39.8532 35.3684 39.5208L35.8167 38.8431C35.9092 38.7031 36.0659 38.6189 36.2337 38.6189H43.5791C43.8552 38.6189 44.0791 38.8427 44.0791 39.1189V39.7966Z" fill="#2684FF"/>
</svg>
