<svg width="47" height="46" viewBox="0 0 47 46" fill="none" xmlns="http://www.w3.org/2000/svg">
<g clip-path="url(#clip0_131_4165)">
<path d="M38.467 6.54374L36.3548 1.75207C35.3237 -0.584348 32.0059 -0.584348 30.9767 1.75207L28.8645 6.54374C28.5691 7.21488 28.033 7.751 27.3618 8.0464L22.5702 10.1586C20.2318 11.1897 20.2318 14.5075 22.5702 15.5367L27.3618 17.6489C28.0327 17.9441 28.5693 18.4807 28.8645 19.1516L30.9767 23.9432C32.0059 26.2816 35.3237 26.2816 36.3548 23.9432L38.467 19.1516C38.7622 18.4807 39.2988 17.9441 39.9697 17.6489L44.7613 15.5367C47.0978 14.5075 47.0978 11.1897 44.7613 10.1586L39.9697 8.0464C39.2985 7.751 38.7624 7.21488 38.467 6.54374ZM10.9437 18.2469L12.362 21.4631C12.5594 21.9135 12.9198 22.2738 13.3702 22.4732L16.5844 23.8915C18.1561 24.5815 18.1561 26.8087 16.5844 27.5006L13.3702 28.9189C12.9195 29.1172 12.5593 29.4768 12.3601 29.9271L10.9418 33.1432C10.2518 34.713 8.02459 34.713 7.33267 33.1432L5.91434 29.9271C5.71561 29.4772 5.35609 29.1176 4.90617 28.9189L1.69001 27.5006C0.120258 26.8106 0.120258 24.5815 1.69001 23.8896L4.90617 22.4712C5.35659 22.2738 5.71692 21.9135 5.91434 21.4631L7.33267 18.2469C8.02267 16.6791 10.2518 16.6791 10.9437 18.2469ZM28.0499 32.7637L29.2153 35.4126C29.3801 35.7825 29.6753 36.0796 30.0471 36.2425L32.6959 37.4117C32.9833 37.5393 33.2275 37.7476 33.3989 38.0112C33.5703 38.2749 33.6615 38.5826 33.6615 38.8971C33.6615 39.2115 33.5703 39.5193 33.3989 39.7829C33.2275 40.0466 32.9833 40.2548 32.6959 40.3825L30.0471 41.5517C29.6762 41.7152 29.3796 42.0111 29.2153 42.3816L28.0499 45.0285C27.9225 45.3164 27.7142 45.5612 27.4504 45.733C27.1865 45.9048 26.8784 45.9963 26.5635 45.9963C26.2487 45.9963 25.9406 45.9048 25.6767 45.733C25.4128 45.5612 25.2046 45.3164 25.0772 45.0285L23.908 42.3816C23.7445 42.0107 23.4486 41.7141 23.0781 41.5497L20.4312 40.3825C20.1438 40.2548 19.8996 40.0466 19.7282 39.7829C19.5568 39.5193 19.4656 39.2115 19.4656 38.8971C19.4656 38.5826 19.5568 38.2749 19.7282 38.0112C19.8996 37.7476 20.1438 37.5393 20.4312 37.4117L23.0781 36.2425C23.4489 36.079 23.7455 35.7831 23.9099 35.4126L25.0772 32.7637C25.2048 32.4763 25.4131 32.2321 25.6768 32.0608C25.9404 31.8894 26.2481 31.7981 26.5626 31.7981C26.8771 31.7981 27.1848 31.8894 27.4484 32.0608C27.7121 32.2321 27.9223 32.4763 28.0499 32.7637Z" fill="#2684FF"/>
</g>
<defs>
<clipPath id="clip0_131_4165">
<rect width="46" height="46" fill="white" transform="translate(0.512695)"/>
</clipPath>
</defs>
</svg>
