<svg width="63" height="64" viewBox="0 0 63 64" fill="none" xmlns="http://www.w3.org/2000/svg">
<rect x="0.5" y="0.5" width="61.359" height="63" rx="7.5" fill="#2684FF" fill-opacity="0.1"/>
<rect x="0.5" y="0.5" width="61.359" height="63" rx="7.5" stroke="#2684FF"/>
<path d="M33.9951 16.153C33.9951 16.1535 33.9947 16.1539 33.9941 16.1539C33.9932 16.1539 33.9922 16.1539 33.9912 16.1539C33.9891 16.1539 33.9873 16.1557 33.9873 16.1578V19.1256C33.987 20.2299 33.0917 21.1246 31.9873 21.1246H21.7803C20.676 21.1249 19.7804 22.0203 19.7803 23.1246V40.983C19.7804 42.0873 20.676 42.9828 21.7803 42.983H39.6387C40.7431 42.9829 41.6385 42.0874 41.6387 40.983V30.5543C41.6387 29.4499 42.5343 28.5545 43.6387 28.5543H45.9395C45.9416 28.5543 45.9434 28.5526 45.9434 28.5504L45.9443 26.5958C45.9443 26.5956 45.9441 26.5953 45.9438 26.5953C45.9436 26.5953 45.9434 26.5951 45.9434 26.5948V23.9459C45.9433 23.6599 45.8801 23.3809 45.7646 23.1246C45.8807 23.3813 45.9443 23.6612 45.9443 23.9479V40.1588C45.9443 40.6665 45.7512 41.1554 45.4043 41.526L39.9766 47.3219C39.5985 47.7256 39.0697 47.9547 38.5166 47.9547H23.4111C22.8864 47.9546 22.3828 47.7485 22.0088 47.3805L16.0723 41.5367C15.6906 41.1609 15.4756 40.6476 15.4756 40.1119V23.9948C15.4757 23.4591 15.6906 22.9458 16.0723 22.5699L22.0088 16.7262C22.3828 16.3582 22.8865 16.1521 23.4111 16.152H33.9941C33.9947 16.152 33.9951 16.1524 33.9951 16.153ZM42.8613 19.8629L45.4043 22.5797C45.5177 22.701 45.6129 22.8358 45.6914 22.9791C45.6129 22.8361 45.5176 22.7017 45.4043 22.5807L41.6182 18.5377L42.8613 19.8629ZM38.5166 16.152C39.0697 16.152 39.5985 16.3811 39.9766 16.7848L41.6182 18.5377L39.9746 16.7858C39.5966 16.3829 39.0691 16.1539 38.5166 16.1539C37.8373 16.1539 36.7844 16.1539 35.4541 16.1539C35.4536 16.1539 35.4531 16.1535 35.4531 16.153C35.4531 16.1524 35.4536 16.152 35.4541 16.152H38.5166Z" fill="#2684FF"/>
<path d="M46.1252 18.4461C46.5227 18.8396 46.5202 19.4827 46.1195 19.8731L32.3085 33.3281C32.1218 33.51 31.8714 33.6118 31.6107 33.6118L29.8366 33.6118C29.2843 33.6118 28.8366 33.1641 28.8366 32.6118L28.8366 30.8851C28.8366 30.6154 28.9455 30.3571 29.1387 30.1688L42.9647 16.6992C43.3552 16.3187 43.9786 16.3212 44.366 16.7048L46.1252 18.4461Z" fill="#2684FF"/>
</svg>
