<svg width="63" height="64" viewBox="0 0 63 64" fill="none" xmlns="http://www.w3.org/2000/svg">
<rect x="0.5" y="0.5" width="61.359" height="63" rx="7.5" fill="#2684FF" fill-opacity="0.1"/>
<rect x="0.5" y="0.5" width="61.359" height="63" rx="7.5" stroke="#2684FF"/>
<path d="M34.2065 17.8594L38.7183 22.4814H44.4399L48.8423 27.2686V41.0791L44.1099 46.1406H28.0981L23.4771 41.0791H18.1392L13.5171 36.5674V22.4814L18.1392 17.8594H34.2065ZM40.4458 25.7686C39.9156 25.7687 39.4067 25.9786 39.0317 26.3535L27.2183 38.168C26.8432 38.543 26.6323 39.0516 26.6323 39.582V40.8311C26.6325 41.9355 27.5279 42.831 28.6323 42.8311H43.9458C45.0501 42.8309 45.9456 41.9353 45.9458 40.8311V27.7686C45.9458 26.6641 45.0502 25.7688 43.9458 25.7686H40.4458ZM18.2202 20.7539C17.1158 20.7539 16.2205 21.6496 16.2202 22.7539V35.6123C16.2202 36.7169 17.1157 37.6123 18.2202 37.6123H22.2866C22.832 37.6122 23.3538 37.3891 23.731 36.9951L35.0171 25.207C35.3735 24.8348 35.5727 24.3395 35.5728 23.8242V22.7539C35.5725 21.6496 34.6772 20.7539 33.5728 20.7539H18.2202Z" fill="#2684FF"/>
<path d="M18.8162 24.459C18.8162 24.7351 19.04 24.959 19.3162 24.959H29.7477C30.1462 24.959 30.3846 24.5156 30.1648 24.1832L29.7166 23.5054C29.624 23.3654 29.4673 23.2812 29.2995 23.2812H19.3162C19.04 23.2812 18.8162 23.5051 18.8162 23.7812V24.459Z" fill="#2684FF"/>
<path d="M44.0791 36.7777C44.0791 37.0539 43.8552 37.2777 43.5791 37.2777H33.1475C32.749 37.2777 32.5107 36.8343 32.7305 36.5019L33.1787 35.8241C33.2713 35.6841 33.4279 35.5999 33.5958 35.5999H43.5791C43.8552 35.5999 44.0791 35.8238 44.0791 36.0999V36.7777Z" fill="#2684FF"/>
<path d="M18.8162 27.4778C18.8162 27.7539 19.04 27.9778 19.3162 27.9778H27.1098C27.5083 27.9778 27.7466 27.5344 27.5268 27.202L27.0786 26.5242C26.986 26.3842 26.8294 26.3 26.6616 26.3H19.3162C19.04 26.3 18.8162 26.5239 18.8162 26.8V27.4778Z" fill="#2684FF"/>
<path d="M44.0791 39.7966C44.0791 40.0728 43.8552 40.2966 43.5791 40.2966H35.7855C35.387 40.2966 35.1486 39.8532 35.3684 39.5208L35.8167 38.8431C35.9092 38.7031 36.0659 38.6189 36.2337 38.6189H43.5791C43.8552 38.6189 44.0791 38.8427 44.0791 39.1189V39.7966Z" fill="#2684FF"/>
</svg>
