<svg width="63" height="64" viewBox="0 0 63 64" fill="none" xmlns="http://www.w3.org/2000/svg">
<rect width="62.359" height="64" rx="8" fill="#2684FF"/>
<path d="M27.6503 18.5597C28.0414 18.1685 28.5772 17.9567 29.1301 17.9748L32.9474 18.1005C33.4548 18.1171 33.9369 18.3263 34.296 18.6854L40.3568 24.7462C40.7158 25.1052 40.925 25.5873 40.9417 26.0948L41.0673 29.9121C41.0855 30.465 40.8736 31.0007 40.4825 31.3919L34.8995 36.9749C34.5284 37.3458 34.0266 37.5562 33.5018 37.5604L29.4595 37.5922C28.9238 37.5963 28.4089 37.3854 28.0301 37.0066L22.0355 31.0121C21.6568 30.6333 21.4458 30.1184 21.45 29.5827L21.4817 25.5403C21.486 25.0157 21.6964 24.5137 22.0673 24.1427L27.6503 18.5597ZM23.775 26.4484C22.9939 27.2294 22.9939 28.4957 23.775 29.2768L29.7661 35.2679C30.5471 36.0488 31.8135 36.0489 32.5945 35.2679L38.5856 29.2768C39.3664 28.4958 39.3664 27.2294 38.5856 26.4484L32.5945 20.4573C31.8135 19.6763 30.5471 19.6764 29.7661 20.4573L23.775 26.4484Z" fill="white"/>
<path d="M37.5112 38.9551C37.7855 38.9551 38.048 39.0677 38.2368 39.2666L43.2661 44.5645C43.4423 44.7502 43.5405 44.9969 43.5405 45.2529V47.7002C43.5405 48.2524 43.0928 48.7001 42.5405 48.7002H39.9185V43.4287C39.9185 42.8764 39.4707 42.4287 38.9185 42.4287H23.4136C22.8615 42.429 22.4136 42.8766 22.4136 43.4287V48.7002H19.7925C19.2402 48.7002 18.7925 48.2525 18.7925 47.7002V45.2695C18.7926 45.0034 18.8986 44.7482 19.0874 44.5605L24.4409 39.2451C24.6282 39.0591 24.882 38.9551 25.146 38.9551H37.5112Z" fill="white"/>
</svg>
